<svg xmlns="http://www.w3.org/2000/svg" xmlns:xlink="http://www.w3.org/1999/xlink" width="1510" height="1251" viewBox="0 0 1510 1251">
  <defs>
    <polygon id="pattern-a" points="0 .629 143.752 .629 143.752 53.584 0 53.584"/>
  </defs>
  <g fill="none" fill-rule="evenodd" opacity=".05">
    <path fill="#363A3E" d="M814.137205,302 C814.042032,302 813.952807,301.982058 813.863582,301.946174 C813.595908,301.832543 813.423406,301.569396 813.423406,301.282326 L813.423406,210.867395 L723.716665,210.867395 C723.425197,210.867395 723.163471,210.687977 723.056401,210.418849 C722.943383,210.155702 723.002866,209.84471 723.211057,209.641369 L775.354104,157.209322 C775.490916,157.071767 775.669366,157 775.859712,157 L866.280252,157 C866.67879,157 867,157.322953 867,157.717674 L867,248.850278 C867,249.041658 866.922672,249.227057 866.78586,249.358631 L814.642813,301.790678 C814.506002,301.928233 814.321604,302 814.137205,302 L814.137205,302 Z M725.441681,209.426067 L814.137205,209.426067 C814.529795,209.426067 814.851005,209.74902 814.851005,210.143741 L814.851005,299.541967 L865.566453,248.557228 L865.566453,158.435347 L776.157129,158.435347 L725.441681,209.426067 Z"/>
    <path fill="#363A3E" d="M723.715718,210 C723.477782,210 723.245794,209.880093 723.114929,209.664261 C722.930528,209.38248 722.972167,209.010769 723.210103,208.770956 L775.359835,156.209837 C775.4907,156.077939 775.6751,156 775.859501,156 L866.287266,156 C866.632274,156 866.929695,156.251804 866.989179,156.593538 C867.048663,156.941268 866.858314,157.277007 866.531151,157.396914 L723.959603,209.958033 C723.882274,209.988009 723.798996,210 723.715718,210 L723.715718,210 Z M776.156922,157.444876 L726.511472,207.481958 L862.248294,157.444876 L776.156922,157.444876 Z"/>
    <path fill="#363A3E" d="M955.141623,249 C955.046447,249 954.95722,248.982058 954.867992,248.946174 C954.60031,248.832543 954.427803,248.569396 954.427803,248.282326 L954.427803,157.867395 L864.718465,157.867395 C864.426989,157.867395 864.165254,157.687977 864.052233,157.42483 C863.94516,157.155702 864.004645,156.84471 864.212842,156.641369 L916.357399,104.209322 C916.494215,104.077748 916.67267,104 916.863022,104 L1007.28618,104 C1007.68473,104 1008,104.322953 1008,104.717674 L1008,195.850278 C1008,196.041658 1007.92862,196.227057 1007.7918,196.358631 L955.647246,248.790678 C955.51043,248.928233 955.326027,249 955.141623,249 L955.141623,249 Z M866.44353,156.426067 L955.141623,156.426067 C955.540173,156.426067 955.855443,156.74902 955.855443,157.149722 L955.855443,246.547948 L1006.57236,195.557228 L1006.57236,105.435347 L917.160447,105.435347 L866.44353,156.426067 Z"/>
    <path fill="#363A3E" d="M864.715718 158C864.477782 158 864.245794 157.880093 864.114929 157.664261 863.930528 157.38248 863.972167 157.010769 864.210103 156.770956L916.359835 104.209837C916.4907 104.077939 916.6751 104 916.859501 104L1007.28727 104C1007.63227 104 1007.92969 104.251804 1007.98918 104.593538 1008.04866 104.941268 1007.85831 105.277007 1007.53115 105.396914L864.959603 157.958033C864.882274 157.988009 864.798996 158 864.715718 158L864.715718 158zM917.156922 105.444876L867.511472 155.481958 1003.24829 105.444876 917.156922 105.444876zM1240.13721 145C1240.04203 145 1239.95281 144.982058 1239.86358 144.946174 1239.59591 144.832543 1239.42341 144.569396 1239.42341 144.282326L1239.42341 53.8673953 1149.71667 53.8673953C1149.4252 53.8673953 1149.16347 53.6879769 1149.0564 53.4248299 1148.94338 53.1557022 1149.00287 52.8447102 1149.21106 52.6413694L1201.3541.20932151C1201.49092.0777479893 1201.66937 0 1201.85971 0L1292.28025 0C1292.67879 0 1293 .322953186 1293 .717673747L1293 91.8502784C1293 92.0416581 1292.92267 92.2270571 1292.78586 92.3586306L1240.64281 144.790678C1240.506 144.928233 1240.3216 145 1240.13721 145L1240.13721 145zM1151.44168 52.4260672L1240.13721 52.4260672C1240.5298 52.4260672 1240.851 52.7490204 1240.851 53.143741L1240.851 142.541967 1291.56645 91.5572283 1291.56645 1.43534749 1202.15713 1.43534749 1151.44168 52.4260672z"/>
    <path fill="#363A3E" d="M1149.71572 54C1149.47778 54 1149.24579 53.8800933 1149.11493 53.6642611 1148.93053 53.3824803 1148.97217 53.0107694 1149.2101 52.7709559L1201.35389.209836794C1201.4907.0779393805 1201.66915 0 1201.8595 0L1292.28727 0C1292.63227 0 1292.92969.251804152 1292.98918.593538359 1293.04866.941267903 1292.85831 1.27700677 1292.53115 1.39691351L1149.9596 53.9580326C1149.88227 53.9880093 1149.799 54 1149.71572 54L1149.71572 54zM1202.15692 1.44487621L1152.51147 51.4819585 1288.24829 1.44487621 1202.15692 1.44487621zM620.136722 497C620.041548 497 619.952323 496.982058 619.863097 496.946174 619.59542 496.832543 619.422916 496.569396 619.422916 496.282326L619.422916 405.867395 529.715356 405.867395C529.423885 405.867395 529.162156 405.687977 529.055086 405.418849 528.942066 405.155702 529.007499 404.84471 529.209744 404.641369L581.353267 352.209322C581.49008 352.077748 581.668531 352 581.858879 352L672.280246 352C672.678787 352 673 352.322953 673 352.717674L673 443.850278C673 444.041658 672.922671 444.227057 672.785858 444.358631L620.642335 496.790678C620.505522 496.928233 620.321122 497 620.136722 497L620.136722 497zM531.440387 404.426067L620.136722 404.426067C620.529316 404.426067 620.850528 404.74902 620.850528 405.143741L620.850528 494.541967 671.56644 443.557228 671.56644 353.435347 582.156298 353.435347 531.440387 404.426067z"/>
    <path fill="#363A3E" d="M529.715718,406 C529.477782,406 529.245794,405.880093 529.114929,405.664261 C528.930528,405.38248 528.972167,405.010769 529.210103,404.770956 L581.353886,352.209837 C581.4907,352.077939 581.6751,352 581.859501,352 L672.287266,352 C672.632274,352 672.929695,352.251804 672.989179,352.593538 C673.048663,352.941268 672.858314,353.277007 672.531151,353.396914 L529.959603,405.958033 C529.882274,405.988009 529.798996,406 529.715718,406 L529.715718,406 Z M582.156922,353.444876 L532.511472,403.481958 L668.248294,353.444876 L582.156922,353.444876 Z"/>
    <path fill="#363A3E" d="M762.136722,444 C762.047497,444 761.952323,443.982058 761.863097,443.946174 C761.59542,443.832543 761.422916,443.569396 761.422916,443.282326 L761.422916,352.867395 L671.715356,352.867395 C671.423885,352.867395 671.162156,352.687977 671.055086,352.418849 C670.942066,352.155702 671.007499,351.84471 671.209744,351.635389 L723.353267,299.209322 C723.49008,299.071767 723.668531,299 723.858879,299 L814.286194,299 C814.678787,299 815,299.322953 815,299.717674 L815,390.850278 C815,391.041658 814.922671,391.227057 814.791807,391.358631 L762.642335,443.790678 C762.505522,443.928233 762.321122,444 762.136722,444 L762.136722,444 Z M673.440387,351.426067 L762.136722,351.426067 C762.535264,351.426067 762.850528,351.74902 762.850528,352.143741 L762.850528,441.541967 L813.56644,390.551248 L813.56644,300.435347 L724.156298,300.435347 L673.440387,351.426067 Z"/>
    <path fill="#363A3E" d="M671.715718,354 C671.477782,354 671.245794,353.880093 671.114929,353.664261 C670.930528,353.38248 670.972167,353.010769 671.210103,352.770956 L723.353886,300.209837 C723.4907,300.077939 723.669152,300 723.859501,300 L814.287266,300 C814.632274,300 814.929695,300.251804 814.989179,300.593538 C815.048663,300.941268 814.858314,301.277007 814.531151,301.396914 L671.959603,353.958033 C671.882274,353.988009 671.798996,354 671.715718,354 L671.715718,354 Z M724.156922,301.444876 L674.511472,351.481958 L810.248294,301.444876 L724.156922,301.444876 Z"/>
    <path fill="#363A3E" d="M904.137858,393 C904.042686,393 903.953463,392.982058 903.864239,392.946174 C903.596567,392.832543 903.424068,392.569396 903.424068,392.282326 L903.424068,301.867395 L813.718435,301.867395 C813.426971,301.867395 813.165248,301.687977 813.052231,301.42483 C812.945162,301.155702 813.004645,300.84471 813.212834,300.641369 L865.355236,248.209322 C865.492046,248.077748 865.670494,248 865.860838,248 L956.280261,248 C956.678794,248 957,248.322953 957,248.717674 L957,339.850278 C957,340.041658 956.922673,340.227057 956.791811,340.358631 L904.64346,392.790678 C904.50665,392.928233 904.322254,393 904.137858,393 L904.137858,393 Z M815.443429,300.426067 L904.137858,300.426067 C904.536392,300.426067 904.851649,300.74902 904.851649,301.149722 L904.851649,390.547948 L955.566471,339.557228 L955.566471,249.435347 L866.158251,249.435347 L815.443429,300.426067 Z"/>
    <path fill="#363A3E" d="M813.715718,301 C813.477782,301 813.245794,300.880093 813.114929,300.664261 C812.930528,300.38248 812.972167,300.010769 813.210103,299.770956 L865.353886,247.209837 C865.4907,247.077939 865.669152,247 865.859501,247 L956.287266,247 C956.632274,247 956.929695,247.251804 956.989179,247.593538 C957.048663,247.941268 956.858314,248.277007 956.531151,248.396914 L813.959603,300.958033 C813.882274,300.988009 813.798996,301 813.715718,301 L813.715718,301 Z M866.156922,248.444876 L816.511472,298.481958 L952.248294,248.444876 L866.156922,248.444876 Z"/>
    <path fill="#363A3E" d="M1046.13672,341 C1046.04155,341 1045.95232,340.982058 1045.8631,340.946174 C1045.59542,340.832543 1045.42292,340.569396 1045.42292,340.282326 L1045.42292,249.867395 L955.715356,249.867395 C955.423885,249.867395 955.162156,249.687977 955.055086,249.42483 C954.942066,249.155702 955.007499,248.84471 955.209744,248.641369 L1007.35327,196.209322 C1007.49008,196.077748 1007.66853,196 1007.85888,196 L1098.28025,196 C1098.67879,196 1099,196.322953 1099,196.717674 L1099,287.850278 C1099,288.041658 1098.92267,288.227057 1098.78586,288.358631 L1046.64233,340.790678 C1046.50552,340.928233 1046.32112,341 1046.13672,341 L1046.13672,341 Z M957.440387,248.426067 L1046.13672,248.426067 C1046.53526,248.426067 1046.85053,248.74902 1046.85053,249.143741 L1046.85053,338.541967 L1097.56644,287.557228 L1097.56644,197.435347 L1008.1563,197.435347 L957.440387,248.426067 Z"/>
    <path fill="#363A3E" d="M955.715718 249C955.477782 249 955.245794 248.880093 955.114929 248.664261 954.930528 248.38248 954.972167 248.010769 955.210103 247.770956L1007.35389 195.209837C1007.4907 195.077939 1007.66915 195 1007.8595 195L1098.28727 195C1098.63227 195 1098.92969 195.251804 1098.98918 195.593538 1099.04866 195.941268 1098.85831 196.277007 1098.53115 196.396914L955.959603 248.958033C955.882274 248.988009 955.798996 249 955.715718 249L955.715718 249zM1008.15692 196.444876L958.511472 246.481958 1094.24829 196.444876 1008.15692 196.444876zM711.136722 587C711.041548 587 710.952323 586.982058 710.863097 586.946174 710.59542 586.832543 710.422916 586.569396 710.422916 586.282326L710.422916 495.867395 620.715356 495.867395C620.423885 495.867395 620.162156 495.687977 620.055086 495.42483 619.942066 495.155702 620.007499 494.84471 620.209744 494.641369L672.353267 442.209322C672.49008 442.077748 672.668531 442 672.858879 442L763.280246 442C763.678787 442 764 442.322953 764 442.717674L764 533.850278C764 534.041658 763.922671 534.227057 763.785858 534.358631L711.642335 586.790678C711.505522 586.928233 711.321122 587 711.136722 587L711.136722 587zM622.440387 494.426067L711.136722 494.426067C711.529316 494.426067 711.850528 494.74902 711.850528 495.149722L711.850528 584.547948 762.56644 533.557228 762.56644 443.435347 673.156298 443.435347 622.440387 494.426067z"/>
    <path fill="#363A3E" d="M620.715718,497 C620.477782,497 620.245794,496.880093 620.114929,496.664261 C619.930528,496.38248 619.972167,496.010769 620.210103,495.770956 L672.353886,443.209837 C672.4907,443.077939 672.669152,443 672.859501,443 L763.287266,443 C763.632274,443 763.929695,443.251804 763.989179,443.593538 C764.048663,443.941268 763.858314,444.277007 763.531151,444.396914 L620.959603,496.958033 C620.882274,496.988009 620.798996,497 620.715718,497 L620.715718,497 Z M673.156922,444.444876 L623.511472,494.481958 L759.248294,444.444876 L673.156922,444.444876 Z"/>
    <path fill="#363A3E" d="M851.137858,535 C851.042686,535 850.953463,534.982058 850.864239,534.946174 C850.596567,534.832543 850.424068,534.569396 850.424068,534.282326 L850.424068,443.867395 L760.712487,443.867395 C760.426971,443.867395 760.165248,443.687977 760.052231,443.42483 C759.945162,443.155702 760.004645,442.84471 760.212834,442.635389 L812.355236,390.209322 C812.492046,390.077748 812.670494,390 812.860838,390 L903.280261,390 C903.678794,390 904,390.322953 904,390.717674 L904,481.850278 C904,482.041658 903.922673,482.227057 903.785863,482.358631 L851.64346,534.790678 C851.50665,534.928233 851.322254,535 851.137858,535 L851.137858,535 Z M762.443429,442.426067 L851.137858,442.426067 C851.530443,442.426067 851.851649,442.74902 851.851649,443.149722 L851.851649,532.547948 L902.566471,481.551248 L902.566471,391.435347 L813.158251,391.435347 L762.443429,442.426067 Z"/>
    <path fill="#363A3E" d="M760.715718,444 C760.477782,444 760.245794,443.880093 760.114929,443.664261 C759.930528,443.38248 759.972167,443.010769 760.210103,442.770956 L812.359835,390.209837 C812.4907,390.077939 812.6751,390 812.86545,390 L903.287266,390 C903.632274,390 903.929695,390.251804 903.989179,390.593538 C904.048663,390.941268 903.858314,391.277007 903.531151,391.396914 L760.959603,443.958033 C760.882274,443.988009 760.798996,444 760.715718,444 L760.715718,444 Z M813.156922,391.438881 L763.511472,441.481958 L899.248294,391.438881 L813.156922,391.438881 Z"/>
    <path fill="#363A3E" d="M994.136722,483 C994.041548,483 993.952323,482.982058 993.863097,482.946174 C993.59542,482.832543 993.422916,482.569396 993.422916,482.282326 L993.422916,391.867395 L903.715356,391.867395 C903.423885,391.867395 903.162156,391.687977 903.055086,391.42483 C902.942066,391.155702 903.007499,390.84471 903.209744,390.641369 L955.353267,338.209322 C955.49008,338.077748 955.668531,338 955.858879,338 L1046.28025,338 C1046.67879,338 1047,338.322953 1047,338.717674 L1047,429.850278 C1047,430.041658 1046.92267,430.227057 1046.79181,430.358631 L994.642335,482.790678 C994.505522,482.928233 994.321122,483 994.136722,483 L994.136722,483 Z M905.440387,390.426067 L994.136722,390.426067 C994.535264,390.426067 994.850528,390.74902 994.850528,391.143741 L994.850528,480.541967 L1045.56644,429.557228 L1045.56644,339.435347 L956.156298,339.435347 L905.440387,390.426067 Z"/>
    <path fill="#363A3E" d="M903.715718,392 C903.477782,392 903.245794,391.880093 903.114929,391.664261 C902.930528,391.38248 902.972167,391.010769 903.210103,390.770956 L955.359835,338.209837 C955.4907,338.077939 955.6751,338 955.859501,338 L1046.28727,338 C1046.63227,338 1046.92969,338.251804 1046.98918,338.593538 C1047.04866,338.941268 1046.85831,339.277007 1046.53115,339.396914 L903.959603,391.958033 C903.882274,391.988009 903.798996,392 903.715718,392 L903.715718,392 Z M956.156922,339.444876 L906.511472,389.481958 L1042.24829,339.444876 L956.156922,339.444876 Z"/>
    <path fill="#363A3E" d="M1136.13672,431 C1136.04155,431 1135.95232,430.982058 1135.8631,430.946174 C1135.59542,430.832543 1135.42292,430.569396 1135.42292,430.282326 L1135.42292,339.867395 L1045.71536,339.867395 C1045.42389,339.867395 1045.16216,339.687977 1045.05509,339.418849 C1044.94207,339.155702 1045.0075,338.84471 1045.20974,338.635389 L1097.35327,286.209322 C1097.49008,286.071767 1097.66853,286 1097.85888,286 L1188.28025,286 C1188.67879,286 1189,286.322953 1189,286.717674 L1189,377.850278 C1189,378.041658 1188.92267,378.227057 1188.78586,378.358631 L1136.64233,430.790678 C1136.50552,430.928233 1136.32112,431 1136.13672,431 L1136.13672,431 Z M1047.44039,338.426067 L1136.13672,338.426067 C1136.52932,338.426067 1136.85053,338.74902 1136.85053,339.143741 L1136.85053,428.541967 L1187.56644,377.551248 L1187.56644,287.435347 L1098.1563,287.435347 L1047.44039,338.426067 Z"/>
    <path fill="#363A3E" d="M1045.71572,339 C1045.47778,339 1045.24579,338.880093 1045.11493,338.664261 C1044.93053,338.38248 1044.97217,338.010769 1045.2101,337.770956 L1097.35983,285.209837 C1097.4907,285.077939 1097.66915,285 1097.8595,285 L1188.28727,285 C1188.63227,285 1188.92969,285.251804 1188.98918,285.593538 C1189.04866,285.941268 1188.85831,286.277007 1188.53115,286.396914 L1045.9596,338.958033 C1045.88227,338.988009 1045.799,339 1045.71572,339 L1045.71572,339 Z M1098.15692,286.444876 L1048.51147,336.481958 L1184.24829,286.444876 L1098.15692,286.444876 Z"/>
    <path fill="#363A3E" d="M1277.13672,378 C1277.04155,378 1276.95232,377.982058 1276.8631,377.946174 C1276.59542,377.832543 1276.42292,377.569396 1276.42292,377.282326 L1276.42292,286.867395 L1186.71536,286.867395 C1186.42389,286.867395 1186.16216,286.687977 1186.05509,286.418849 C1185.94207,286.155702 1186.0075,285.84471 1186.20974,285.641369 L1238.35327,233.209322 C1238.49008,233.077748 1238.66853,233 1238.85888,233 L1329.28025,233 C1329.67879,233 1330,233.322953 1330,233.717674 L1330,324.850278 C1330,325.041658 1329.92267,325.227057 1329.78586,325.358631 L1277.64233,377.790678 C1277.50552,377.928233 1277.32112,378 1277.13672,378 L1277.13672,378 Z M1188.44039,285.426067 L1277.13672,285.426067 C1277.52932,285.426067 1277.85053,285.74902 1277.85053,286.143741 L1277.85053,375.541967 L1328.56644,324.557228 L1328.56644,234.435347 L1239.1563,234.435347 L1188.44039,285.426067 Z"/>
    <path fill="#363A3E" d="M1186.71572 287C1186.47778 287 1186.24579 286.880093 1186.11493 286.664261 1185.93053 286.38248 1185.97217 286.010769 1186.2101 285.770956L1238.35389 233.209837C1238.4907 233.077939 1238.66915 233 1238.8595 233L1329.28727 233C1329.63227 233 1329.92969 233.251804 1329.98918 233.593538 1330.04866 233.941268 1329.85831 234.277007 1329.53115 234.396914L1186.9596 286.958033C1186.88227 286.988009 1186.799 287 1186.71572 287L1186.71572 287zM1239.15692 234.444876L1189.51147 284.481958 1325.24829 234.444876 1239.15692 234.444876zM800.137205 678C800.047981 678 799.952807 677.982058 799.863582 677.946174 799.595908 677.832543 799.423406 677.569396 799.423406 677.282326L799.423406 586.867395 709.716665 586.867395C709.425197 586.867395 709.163471 586.687977 709.056401 586.42483 708.943383 586.155702 709.002866 585.84471 709.211057 585.635389L761.354104 533.209322C761.490916 533.071767 761.669366 533 761.859712 533L852.286201 533C852.67879 533 853 533.322953 853 533.717674L853 624.850278C853 625.041658 852.922672 625.227057 852.791809 625.358631L800.642813 677.790678C800.506002 677.928233 800.321604 678 800.137205 678L800.137205 678zM711.441681 585.426067L800.137205 585.426067C800.535743 585.426067 800.851005 585.74902 800.851005 586.143741L800.851005 675.541967 851.566453 624.551248 851.566453 534.435347 762.157129 534.435347 711.441681 585.426067z"/>
    <path fill="#363A3E" d="M709.715718,588 C709.477782,588 709.245794,587.880093 709.114929,587.664261 C708.930528,587.38248 708.972167,587.010769 709.210103,586.770956 L761.353886,534.209837 C761.4907,534.077939 761.669152,534 761.859501,534 L852.287266,534 C852.632274,534 852.929695,534.251804 852.989179,534.593538 C853.048663,534.941268 852.858314,535.277007 852.531151,535.396914 L709.959603,587.958033 C709.882274,587.988009 709.798996,588 709.715718,588 L709.715718,588 Z M762.156922,535.444876 L712.511472,585.481958 L848.248294,535.444876 L762.156922,535.444876 Z"/>
    <path fill="#363A3E" d="M942.136722,626 C942.041548,626 941.952323,625.982058 941.863097,625.946174 C941.59542,625.832543 941.422916,625.569396 941.422916,625.282326 L941.422916,534.867395 L851.715356,534.867395 C851.423885,534.867395 851.162156,534.687977 851.055086,534.418849 C850.942066,534.155702 851.007499,533.84471 851.209744,533.635389 L903.353267,481.209322 C903.49008,481.071767 903.668531,481 903.858879,481 L994.280246,481 C994.678787,481 995,481.322953 995,481.717674 L995,572.850278 C995,573.041658 994.922671,573.227057 994.791807,573.358631 L942.642335,625.790678 C942.505522,625.928233 942.321122,626 942.136722,626 L942.136722,626 Z M853.440387,533.426067 L942.136722,533.426067 C942.535264,533.426067 942.850528,533.74902 942.850528,534.143741 L942.850528,623.541967 L993.56644,572.551248 L993.56644,482.435347 L904.156298,482.435347 L853.440387,533.426067 Z"/>
    <path fill="#363A3E" d="M851.715718,535 C851.477782,535 851.245794,534.880093 851.114929,534.664261 C850.930528,534.38248 850.972167,534.010769 851.210103,533.770956 L903.353886,481.209837 C903.4907,481.077939 903.669152,481 903.859501,481 L994.287266,481 C994.632274,481 994.929695,481.251804 994.989179,481.593538 C995.048663,481.941268 994.858314,482.277007 994.531151,482.396914 L851.959603,534.958033 C851.882274,534.988009 851.798996,535 851.715718,535 L851.715718,535 Z M904.156922,482.444876 L854.511472,532.481958 L990.248294,482.444876 L904.156922,482.444876 Z"/>
    <path fill="#363A3E" d="M1083.13672,575 C1083.04155,575 1082.95232,574.982058 1082.8631,574.946174 C1082.59542,574.832543 1082.42292,574.569396 1082.42292,574.282326 L1082.42292,483.867395 L992.715356,483.867395 C992.423885,483.867395 992.162156,483.687977 992.055086,483.418849 C991.942066,483.155702 992.007499,482.84471 992.209744,482.635389 L1044.35327,430.209322 C1044.49008,430.071767 1044.66853,430 1044.85888,430 L1135.28025,430 C1135.67879,430 1136,430.322953 1136,430.717674 L1136,521.850278 C1136,522.041658 1135.92267,522.227057 1135.78586,522.358631 L1083.64233,574.790678 C1083.50552,574.928233 1083.32112,575 1083.13672,575 L1083.13672,575 Z M994.440387,482.426067 L1083.13672,482.426067 C1083.53526,482.426067 1083.85053,482.74902 1083.85053,483.143741 L1083.85053,572.541967 L1134.56644,521.551248 L1134.56644,431.435347 L1045.1563,431.435347 L994.440387,482.426067 Z"/>
    <path fill="#363A3E" d="M992.715718 483C992.477782 483 992.245794 482.880093 992.114929 482.664261 991.930528 482.38248 991.972167 482.010769 992.210103 481.770956L1044.35983 429.209837C1044.4907 429.077939 1044.66915 429 1044.8595 429L1135.28727 429C1135.63227 429 1135.92969 429.251804 1135.98918 429.593538 1136.04866 429.941268 1135.85831 430.277007 1135.53115 430.396914L992.959603 482.958033C992.882274 482.988009 992.798996 483 992.715718 483L992.715718 483zM1045.15692 430.444876L995.511472 480.481958 1131.24829 430.444876 1045.15692 430.444876zM374.136722 835C374.041548 835 373.952323 834.982058 373.863097 834.946174 373.59542 834.832543 373.422916 834.569396 373.422916 834.282326L373.422916 743.867395 283.715356 743.867395C283.423885 743.867395 283.162156 743.687977 283.055086 743.418849 282.942066 743.155702 283.007499 742.84471 283.209744 742.635389L335.353267 690.209322C335.49008 690.071767 335.668531 690 335.858879 690L426.280246 690C426.678787 690 427 690.322953 427 690.717674L427 781.850278C427 782.041658 426.922671 782.227057 426.785858 782.358631L374.642335 834.790678C374.505522 834.928233 374.321122 835 374.136722 835L374.136722 835zM285.440387 742.426067L374.136722 742.426067C374.529316 742.426067 374.850528 742.74902 374.850528 743.143741L374.850528 832.541967 425.56644 781.551248 425.56644 691.435347 336.156298 691.435347 285.440387 742.426067z"/>
    <path fill="#363A3E" d="M283.715718 743C283.477782 743 283.245794 742.880093 283.114929 742.664261 282.930528 742.38248 282.972167 742.010769 283.210103 741.770956L335.359835 689.209837C335.4907 689.077939 335.6751 689 335.859501 689L426.287266 689C426.632274 689 426.929695 689.251804 426.989179 689.593538 427.048663 689.941268 426.858314 690.277007 426.531151 690.396914L283.959603 742.958033C283.882274 742.988009 283.798996 743 283.715718 743L283.715718 743zM336.156922 690.444876L286.511472 740.481958 422.248294 690.444876 336.156922 690.444876zM91.1367224 940C91.0415483 940 90.9523225 939.982058 90.8630968 939.946174 90.5954196 939.832543 90.4229165 939.569396 90.4229165 939.282326L90.4229165 848.867395.715356065 848.867395C.42388531 848.867395.162156468 848.687977.0550855785 848.418849-.057933694 848.155702.0074985164 847.84471.20974353 847.635389L52.3532668 795.209322C52.4900796 795.071767 52.6685311 795 52.8588793 795L143.280246 795C143.678787 795 144 795.322953 144 795.717674L144 886.850278C144 887.041658 143.922671 887.227057 143.791807 887.358631L91.6423349 939.790678C91.5055221 939.928233 91.3211223 940 91.1367224 940L91.1367224 940zM2.44038707 847.426067L91.1367224 847.426067C91.5293157 847.426067 91.8505283 847.74902 91.8505283 848.143741L91.8505283 937.541967 142.56644 886.551248 142.56644 796.435347 53.1562985 796.435347 2.44038707 847.426067z"/>
    <g transform="translate(0 795)">
      <mask id="pattern-b" fill="#fff">
        <use xlink:href="#pattern-a"/>
      </mask>
      <path fill="#363A3E" d="M0.715546392,53.5836492 C0.478020619,53.5836492 0.24643299,53.4660634 0.10985567,53.2544091 C-0.0682886598,52.9780825 -0.0267216495,52.6135666 0.210804124,52.3783951 L52.2645773,0.834671826 C52.4011546,0.705327477 52.579299,0.628896725 52.7693196,0.628896725 L143.04099,0.628896725 C143.385402,0.628896725 143.682309,0.875826846 143.741691,1.2109463 C143.801072,1.55194504 143.611052,1.8811852 143.284454,1.99877097 L0.959010309,53.5424942 C0.881814433,53.5718906 0.798680412,53.5836492 0.715546392,53.5836492 L0.715546392,53.5836492 Z M53.0662268,2.04580528 L3.50647423,51.114348 L139.00899,2.04580528 L53.0662268,2.04580528 Z" mask="url(#pattern-b)"/>
    </g>
    <path fill="#363A3E" d="M517.136722,783 C517.047497,783 516.952323,782.982058 516.863097,782.946174 C516.59542,782.832543 516.422916,782.569396 516.422916,782.282326 L516.422916,691.867395 L426.715356,691.867395 C426.423885,691.867395 426.162156,691.687977 426.055086,691.42483 C425.942066,691.155702 426.007499,690.84471 426.209744,690.635389 L478.353267,638.209322 C478.49008,638.077748 478.668531,638 478.858879,638 L569.280246,638 C569.678787,638 570,638.322953 570,638.717674 L570,729.850278 C570,730.041658 569.922671,730.227057 569.791807,730.358631 L517.642335,782.790678 C517.505522,782.928233 517.321122,783 517.136722,783 L517.136722,783 Z M428.440387,690.426067 L517.136722,690.426067 C517.535264,690.426067 517.850528,690.74902 517.850528,691.149722 L517.850528,780.541967 L568.56644,729.557228 L568.56644,639.435347 L479.156298,639.435347 L428.440387,690.426067 Z"/>
    <path fill="#363A3E" d="M426.71689 691C426.478956 691 426.24697 690.880093 426.110157 690.664261 425.931706 690.38248 425.973345 690.010769 426.21128 689.770956L478.354636 637.209837C478.491448 637.077939 478.669899 637 478.860247 637L569.287272 637C569.632277 637 569.929695 637.251804 569.989179 637.593538 570.048663 637.941268 569.858315 638.277007 569.531155 638.396914L426.960773 690.958033C426.883445 690.988009 426.800168 691 426.71689 691L426.71689 691zM479.157665 638.444876L429.512621 688.481958 565.248333 638.444876 479.157665 638.444876zM1225.13672 522C1225.04155 522 1224.95232 521.982058 1224.8631 521.946174 1224.59542 521.832543 1224.42292 521.569396 1224.42292 521.282326L1224.42292 430.867395 1134.71536 430.867395C1134.42389 430.867395 1134.16216 430.687977 1134.05509 430.418849 1133.94207 430.155702 1134.0075 429.84471 1134.20974 429.635389L1186.35327 377.209322C1186.49008 377.071767 1186.66853 377 1186.85888 377L1277.28025 377C1277.67879 377 1278 377.322953 1278 377.717674L1278 468.850278C1278 469.041658 1277.92267 469.227057 1277.78586 469.358631L1225.64233 521.790678C1225.50552 521.928233 1225.32112 522 1225.13672 522L1225.13672 522zM1136.44039 429.426067L1225.13672 429.426067C1225.52932 429.426067 1225.85053 429.74902 1225.85053 430.143741L1225.85053 519.541967 1276.56644 468.551248 1276.56644 378.435347 1187.1563 378.435347 1136.44039 429.426067z"/>
    <path fill="#363A3E" d="M1134.71572,431 C1134.47778,431 1134.24579,430.880093 1134.11493,430.664261 C1133.93053,430.38248 1133.97217,430.010769 1134.2101,429.770956 L1186.35389,377.209837 C1186.4907,377.077939 1186.66915,377 1186.8595,377 L1277.28727,377 C1277.63227,377 1277.92969,377.251804 1277.98918,377.593538 C1278.04866,377.941268 1277.85831,378.277007 1277.53115,378.396914 L1134.9596,430.958033 C1134.88227,430.988009 1134.799,431 1134.71572,431 L1134.71572,431 Z M1187.15692,378.444876 L1137.51147,428.481958 L1273.24829,378.444876 L1187.15692,378.444876 Z"/>
    <path fill="#363A3E" d="M1368.13721,468 C1368.04203,468 1367.95281,467.982058 1367.86358,467.946174 C1367.59591,467.832543 1367.42341,467.569396 1367.42341,467.282326 L1367.42341,376.867395 L1277.71667,376.867395 C1277.4252,376.867395 1277.16347,376.687977 1277.0564,376.418849 C1276.94338,376.155702 1277.00287,375.84471 1277.21106,375.635389 L1329.3541,323.209322 C1329.49092,323.077748 1329.66937,323 1329.85971,323 L1420.28025,323 C1420.67879,323 1421,323.322953 1421,323.717674 L1421,414.850278 C1421,415.041658 1420.92267,415.227057 1420.78586,415.358631 L1368.64281,467.790678 C1368.506,467.928233 1368.3216,468 1368.13721,468 L1368.13721,468 Z M1279.44168,375.426067 L1368.13721,375.426067 C1368.5298,375.426067 1368.851,375.74902 1368.851,376.143741 L1368.851,465.541967 L1419.56645,414.557228 L1419.56645,324.435347 L1330.15713,324.435347 L1279.44168,375.426067 Z"/>
    <path fill="#363A3E" d="M1277.71572 379C1277.47778 379 1277.24579 378.880093 1277.11493 378.664261 1276.93053 378.38248 1276.97217 378.010769 1277.2101 377.770956L1329.35389 325.209837C1329.4907 325.077939 1329.66915 325 1329.8595 325L1420.28727 325C1420.63227 325 1420.92969 325.251804 1420.98918 325.593538 1421.04866 325.941268 1420.85831 326.277007 1420.53115 326.396914L1277.9596 378.958033C1277.88227 378.988009 1277.799 379 1277.71572 379L1277.71572 379zM1330.15692 326.444876L1280.51147 376.481958 1416.24829 326.444876 1330.15692 326.444876zM891.137205 769C891.042032 769 890.952807 768.982058 890.863582 768.946174 890.595908 768.832543 890.423406 768.569396 890.423406 768.282326L890.423406 677.867395 800.716665 677.867395C800.425197 677.867395 800.163471 677.687977 800.056401 677.418849 799.943383 677.155702 800.002866 676.84471 800.211057 676.635389L852.354104 624.209322C852.490916 624.071767 852.669366 624 852.859712 624L943.280252 624C943.67879 624 944 624.322953 944 624.717674L944 715.850278C944 716.041658 943.922672 716.227057 943.78586 716.358631L891.642813 768.790678C891.506002 768.928233 891.321604 769 891.137205 769L891.137205 769zM802.441681 676.426067L891.137205 676.426067C891.529795 676.426067 891.851005 676.74902 891.851005 677.143741L891.851005 766.541967 942.566453 715.551248 942.566453 625.435347 853.157129 625.435347 802.441681 676.426067z"/>
    <path fill="#363A3E" d="M800.715718,679 C800.477782,679 800.245794,678.880093 800.114929,678.664261 C799.930528,678.38248 799.972167,678.010769 800.210103,677.770956 L852.359835,625.209837 C852.4907,625.077939 852.6751,625 852.86545,625 L943.287266,625 C943.632274,625 943.929695,625.251804 943.989179,625.593538 C944.048663,625.941268 943.858314,626.277007 943.531151,626.396914 L800.959603,678.958033 C800.882274,678.988009 800.798996,679 800.715718,679 L800.715718,679 Z M853.156922,626.444876 L803.511472,676.481958 L939.248294,626.444876 L853.156922,626.444876 Z"/>
    <path fill="#363A3E" d="M748.137858,821 C748.042686,821 747.953463,820.982058 747.864239,820.946174 C747.596567,820.832543 747.424068,820.569396 747.424068,820.282326 L747.424068,729.867395 L657.718435,729.867395 C657.426971,729.867395 657.165248,729.687977 657.052231,729.418849 C656.945162,729.155702 657.004645,728.84471 657.212834,728.635389 L709.355236,676.209322 C709.492046,676.071767 709.670494,676 709.860838,676 L800.280261,676 C800.678794,676 801,676.322953 801,676.717674 L801,767.850278 C801,768.041658 800.922673,768.227057 800.785863,768.358631 L748.64346,820.790678 C748.50665,820.928233 748.322254,821 748.137858,821 L748.137858,821 Z M659.443429,728.426067 L748.137858,728.426067 C748.530443,728.426067 748.851649,728.74902 748.851649,729.143741 L748.851649,818.541967 L799.566471,767.551248 L799.566471,677.435347 L710.158251,677.435347 L659.443429,728.426067 Z"/>
    <path fill="#363A3E" d="M657.715718 731C657.477782 731 657.245794 730.880093 657.114929 730.664261 656.930528 730.38248 656.972167 730.010769 657.210103 729.770956L709.353886 677.209837C709.4907 677.077939 709.669152 677 709.859501 677L800.287266 677C800.632274 677 800.929695 677.251804 800.989179 677.593538 801.048663 677.941268 800.858314 678.277007 800.531151 678.396914L657.959603 730.958033C657.882274 730.988009 657.798996 731 657.715718 731L657.715718 731zM710.156922 678.444876L660.511472 728.481958 796.248294 678.444876 710.156922 678.444876zM1174.13672 665C1174.04155 665 1173.95232 664.982058 1173.8631 664.946174 1173.59542 664.832543 1173.42292 664.569396 1173.42292 664.282326L1173.42292 573.867395 1083.71536 573.867395C1083.42389 573.867395 1083.16216 573.687977 1083.05509 573.418849 1082.94207 573.155702 1083.0075 572.84471 1083.20974 572.635389L1135.35327 520.209322C1135.49008 520.071767 1135.66853 520 1135.85888 520L1226.28025 520C1226.67879 520 1227 520.322953 1227 520.717674L1227 611.850278C1227 612.041658 1226.92267 612.227057 1226.78586 612.358631L1174.64233 664.790678C1174.50552 664.928233 1174.32112 665 1174.13672 665L1174.13672 665zM1085.44039 572.426067L1174.13672 572.426067C1174.53526 572.426067 1174.85053 572.74902 1174.85053 573.143741L1174.85053 662.541967 1225.56644 611.551248 1225.56644 521.435347 1136.1563 521.435347 1085.44039 572.426067z"/>
    <path fill="#363A3E" d="M1083.71572 574C1083.47778 574 1083.24579 573.880093 1083.11493 573.664261 1082.93053 573.38248 1082.97217 573.010769 1083.2101 572.770956L1135.35983 520.209837C1135.4907 520.077939 1135.66915 520 1135.8595 520L1226.28727 520C1226.63227 520 1226.92969 520.251804 1226.98918 520.593538 1227.04866 520.941268 1226.85831 521.277007 1226.53115 521.396914L1083.9596 573.958033C1083.88227 573.988009 1083.799 574 1083.71572 574L1083.71572 574zM1136.15692 521.444876L1086.51147 571.481958 1222.24829 521.444876 1136.15692 521.444876zM323.136722 979C323.041548 979 322.952323 978.982058 322.863097 978.946174 322.59542 978.832543 322.422916 978.569396 322.422916 978.282326L322.422916 887.867395 232.715356 887.867395C232.423885 887.867395 232.162156 887.687977 232.055086 887.42483 231.942066 887.155702 232.007499 886.84471 232.209744 886.635389L284.353267 834.209322C284.49008 834.071767 284.668531 834 284.858879 834L375.280246 834C375.678787 834 376 834.322953 376 834.717674L376 925.850278C376 926.041658 375.922671 926.227057 375.785858 926.358631L323.642335 978.790678C323.505522 978.928233 323.321122 979 323.136722 979L323.136722 979zM234.440387 886.426067L323.136722 886.426067C323.529316 886.426067 323.850528 886.74902 323.850528 887.149722L323.850528 976.541967 374.56644 925.557228 374.56644 835.435347 285.156298 835.435347 234.440387 886.426067z"/>
    <path fill="#363A3E" d="M232.715718,888 C232.477782,888 232.245794,887.880093 232.114929,887.664261 C231.930528,887.38248 231.972167,887.010769 232.210103,886.770956 L284.353886,834.209837 C284.4907,834.077939 284.6751,834 284.859501,834 L375.287266,834 C375.632274,834 375.929695,834.251804 375.989179,834.593538 C376.048663,834.941268 375.858314,835.277007 375.531151,835.396914 L232.959603,887.958033 C232.882274,887.988009 232.798996,888 232.715718,888 L232.715718,888 Z M285.156922,835.444876 L235.511472,885.481958 L371.248294,835.444876 L285.156922,835.444876 Z"/>
    <path fill="#363A3E" d="M465.136722,927 C465.047497,927 464.952323,926.982058 464.863097,926.946174 C464.59542,926.832543 464.422916,926.569396 464.422916,926.282326 L464.422916,835.867395 L374.715356,835.867395 C374.423885,835.867395 374.162156,835.687977 374.055086,835.42483 C373.942066,835.155702 374.007499,834.84471 374.209744,834.635389 L426.353267,782.209322 C426.49008,782.077748 426.668531,782 426.858879,782 L517.280246,782 C517.678787,782 518,782.322953 518,782.717674 L518,873.850278 C518,874.041658 517.922671,874.227057 517.791807,874.358631 L465.642335,926.790678 C465.505522,926.928233 465.321122,927 465.136722,927 L465.136722,927 Z M376.440387,834.426067 L465.136722,834.426067 C465.529316,834.426067 465.850528,834.74902 465.850528,835.149722 L465.850528,924.547948 L516.56644,873.551248 L516.56644,783.435347 L427.156298,783.435347 L376.440387,834.426067 Z"/>
    <path fill="#363A3E" d="M374.715718 835C374.477782 835 374.245794 834.880093 374.114929 834.664261 373.930528 834.38248 373.972167 834.010769 374.210103 833.770956L426.353886 781.209837C426.4907 781.077939 426.6751 781 426.859501 781L517.287266 781C517.632274 781 517.929695 781.251804 517.989179 781.593538 518.048663 781.941268 517.858314 782.277007 517.531151 782.396914L374.959603 834.958033C374.882274 834.988009 374.798996 835 374.715718 835L374.715718 835zM427.156922 782.444876L377.511472 832.481958 513.248294 782.444876 427.156922 782.444876zM180.136722 1030C180.041548 1030 179.952323 1029.98206 179.863097 1029.94617 179.59542 1029.83254 179.422916 1029.5694 179.422916 1029.28233L179.422916 938.867395 89.7153561 938.867395C89.4238853 938.867395 89.1621565 938.687977 89.0550856 938.418849 88.9420663 938.155702 89.0074985 937.84471 89.2097435 937.641369L141.353267 885.209322C141.49008 885.071767 141.668531 885 141.858879 885L232.280246 885C232.678787 885 233 885.322953 233 885.717674L233 976.850278C233 977.041658 232.922671 977.227057 232.791807 977.358631L180.642335 1029.79068C180.505522 1029.92823 180.321122 1030 180.136722 1030L180.136722 1030zM91.4403871 937.426067L180.136722 937.426067C180.535264 937.426067 180.850528 937.74902 180.850528 938.143741L180.850528 1027.54197 231.56644 976.551248 231.56644 886.435347 142.156298 886.435347 91.4403871 937.426067z"/>
    <path fill="#363A3E" d="M89.7157182 939C89.4777817 939 89.2457936 938.880093 89.1149285 938.664261 88.9305277 938.38248 88.9721666 938.010769 89.2101031 937.770956L141.353886 885.209837C141.4907 885.077939 141.6751 885 141.859501 885L232.287266 885C232.632274 885 232.929695 885.251804 232.989179 885.593538 233.048663 885.941268 232.858314 886.277007 232.531151 886.396914L89.9596031 938.958033C89.8822737 938.988009 89.7989959 939 89.7157182 939L89.7157182 939zM142.156922 886.444876L92.511472 936.481958 228.248294 886.444876 142.156922 886.444876zM605.136722 874C605.047497 874 604.952323 873.982058 604.863097 873.946174 604.59542 873.832543 604.422916 873.569396 604.422916 873.282326L604.422916 782.867395 514.715356 782.867395C514.423885 782.867395 514.162156 782.687977 514.055086 782.42483 513.942066 782.155702 514.007499 781.84471 514.209744 781.635389L566.353267 729.209322C566.49008 729.071767 566.668531 729 566.858879 729L657.280246 729C657.678787 729 658 729.322953 658 729.717674L658 820.850278C658 821.041658 657.922671 821.227057 657.791807 821.358631L605.642335 873.790678C605.505522 873.928233 605.321122 874 605.136722 874L605.136722 874zM516.440387 781.426067L605.136722 781.426067C605.529316 781.426067 605.850528 781.74902 605.850528 782.143741L605.850528 871.541967 656.56644 820.551248 656.56644 730.435347 567.156298 730.435347 516.440387 781.426067z"/>
    <path fill="#363A3E" d="M514.715718 783C514.477782 783 514.245794 782.880093 514.114929 782.664261 513.930528 782.38248 513.972167 782.010769 514.210103 781.770956L566.353886 729.209837C566.4907 729.077939 566.6751 729 566.859501 729L657.287266 729C657.632274 729 657.929695 729.251804 657.989179 729.593538 658.048663 729.941268 657.858314 730.277007 657.531151 730.396914L514.959603 782.958033C514.882274 782.988009 514.798996 783 514.715718 783L514.715718 783zM567.156922 730.444876L517.511472 780.481958 653.248294 730.444876 567.156922 730.444876zM1316.13672 612C1316.04155 612 1315.95232 611.982058 1315.8631 611.946174 1315.59542 611.832543 1315.42292 611.569396 1315.42292 611.282326L1315.42292 520.867395 1225.71536 520.867395C1225.42389 520.867395 1225.16216 520.687977 1225.05509 520.42483 1224.94207 520.155702 1225.0075 519.84471 1225.20974 519.635389L1277.35327 467.209322C1277.49008 467.077748 1277.66853 467 1277.85888 467L1368.28025 467C1368.67879 467 1369 467.322953 1369 467.717674L1369 558.850278C1369 559.041658 1368.92267 559.227057 1368.78586 559.358631L1316.64233 611.790678C1316.50552 611.928233 1316.32112 612 1316.13672 612L1316.13672 612zM1227.44039 519.426067L1316.13672 519.426067C1316.52932 519.426067 1316.85053 519.74902 1316.85053 520.149722L1316.85053 609.547948 1367.56644 558.557228 1367.56644 468.435347 1278.1563 468.435347 1227.44039 519.426067z"/>
    <path fill="#363A3E" d="M1225.71572,521 C1225.47778,521 1225.24579,520.880093 1225.11493,520.664261 C1224.93053,520.38248 1224.97217,520.010769 1225.2101,519.770956 L1277.35389,467.209837 C1277.4907,467.077939 1277.66915,467 1277.8595,467 L1368.28727,467 C1368.63227,467 1368.92969,467.251804 1368.98918,467.593538 C1369.04866,467.941268 1368.85831,468.277007 1368.53115,468.396914 L1225.9596,520.958033 C1225.88227,520.988009 1225.799,521 1225.71572,521 L1225.71572,521 Z M1278.15692,468.444876 L1228.51147,518.481958 L1364.24829,468.444876 L1278.15692,468.444876 Z"/>
    <path fill="#363A3E" d="M1457.13721,560 C1457.04203,560 1456.95281,559.982058 1456.86358,559.946174 C1456.59591,559.832543 1456.42341,559.569396 1456.42341,559.282326 L1456.42341,468.867395 L1366.71667,468.867395 C1366.4252,468.867395 1366.16347,468.687977 1366.0564,468.42483 C1365.94338,468.155702 1366.00287,467.84471 1366.21106,467.635389 L1418.3541,415.209322 C1418.49092,415.077748 1418.66937,415 1418.85971,415 L1509.28025,415 C1509.67879,415 1510,415.322953 1510,415.717674 L1510,506.850278 C1510,507.041658 1509.92267,507.227057 1509.78586,507.358631 L1457.64281,559.790678 C1457.506,559.928233 1457.3216,560 1457.13721,560 L1457.13721,560 Z M1368.44168,467.426067 L1457.13721,467.426067 C1457.5298,467.426067 1457.851,467.74902 1457.851,468.143741 L1457.851,557.541967 L1508.56645,506.551248 L1508.56645,416.435347 L1419.15713,416.435347 L1368.44168,467.426067 Z"/>
    <path fill="#363A3E" d="M1366.71572 469C1366.47778 469 1366.24579 468.880093 1366.11493 468.664261 1365.93053 468.38248 1365.97217 468.010769 1366.2101 467.770956L1418.35389 415.209837C1418.4907 415.077939 1418.66915 415 1418.8595 415L1509.28727 415C1509.63227 415 1509.92969 415.251804 1509.98918 415.593538 1510.04866 415.941268 1509.85831 416.277007 1509.53115 416.396914L1366.9596 468.958033C1366.88227 468.988009 1366.799 469 1366.71572 469L1366.71572 469zM1419.15692 416.444876L1369.51147 466.481958 1505.24829 416.444876 1419.15692 416.444876zM980.136722 860C980.041548 860 979.952323 859.982058 979.863097 859.946174 979.59542 859.832543 979.422916 859.569396 979.422916 859.282326L979.422916 768.867395 889.715356 768.867395C889.423885 768.867395 889.162156 768.687977 889.055086 768.418849 888.942066 768.155702 889.007499 767.84471 889.209744 767.635389L941.353267 715.209322C941.49008 715.071767 941.668531 715 941.858879 715L1032.28025 715C1032.67879 715 1033 715.322953 1033 715.717674L1033 806.850278C1033 807.041658 1032.92267 807.227057 1032.78586 807.358631L980.642335 859.790678C980.505522 859.928233 980.321122 860 980.136722 860L980.136722 860zM891.440387 767.426067L980.136722 767.426067C980.529316 767.426067 980.850528 767.74902 980.850528 768.143741L980.850528 857.541967 1031.56644 806.551248 1031.56644 716.435347 942.156298 716.435347 891.440387 767.426067z"/>
    <path fill="#363A3E" d="M889.715718,770 C889.477782,770 889.245794,769.880093 889.114929,769.664261 C888.930528,769.38248 888.972167,769.010769 889.210103,768.770956 L941.353886,716.209837 C941.4907,716.077939 941.669152,716 941.859501,716 L1032.28727,716 C1032.63227,716 1032.92969,716.251804 1032.98918,716.593538 C1033.04866,716.941268 1032.85831,717.277007 1032.53115,717.396914 L889.959603,769.958033 C889.882274,769.988009 889.798996,770 889.715718,770 L889.715718,770 Z M942.156922,717.444876 L892.511472,767.481958 L1028.24829,717.444876 L942.156922,717.444876 Z"/>
    <path fill="#363A3E" d="M1122.13672,808 C1122.04155,808 1121.95232,807.982058 1121.8631,807.946174 C1121.59542,807.832543 1121.42292,807.569396 1121.42292,807.282326 L1121.42292,716.867395 L1031.71536,716.867395 C1031.42389,716.867395 1031.16216,716.687977 1031.05509,716.42483 C1030.94207,716.155702 1031.0075,715.84471 1031.20974,715.641369 L1083.35327,663.209322 C1083.49008,663.077748 1083.66853,663 1083.85888,663 L1174.28025,663 C1174.67879,663 1175,663.322953 1175,663.717674 L1175,754.850278 C1175,755.041658 1174.92267,755.227057 1174.79181,755.358631 L1122.64233,807.790678 C1122.50552,807.928233 1122.32112,808 1122.13672,808 L1122.13672,808 Z M1033.44039,715.426067 L1122.13672,715.426067 C1122.53526,715.426067 1122.85053,715.74902 1122.85053,716.149722 L1122.85053,805.547948 L1173.56644,754.557228 L1173.56644,664.435347 L1084.1563,664.435347 L1033.44039,715.426067 Z"/>
    <path fill="#363A3E" d="M1031.71572 716C1031.47778 716 1031.24579 715.880093 1031.11493 715.664261 1030.93053 715.38248 1030.97217 715.010769 1031.2101 714.770956L1083.35983 662.209837C1083.4907 662.077939 1083.6751 662 1083.8595 662L1174.28727 662C1174.63227 662 1174.92969 662.251804 1174.98918 662.593538 1175.04866 662.941268 1174.85831 663.277007 1174.53115 663.396914L1031.9596 715.958033C1031.88227 715.988009 1031.799 716 1031.71572 716L1031.71572 716zM1084.15692 663.444876L1034.51147 713.481958 1170.24829 663.444876 1084.15692 663.444876zM837.137205 913C837.042032 913 836.952807 912.982058 836.863582 912.946174 836.595908 912.832543 836.423406 912.569396 836.423406 912.282326L836.423406 821.867395 746.716665 821.867395C746.425197 821.867395 746.163471 821.687977 746.056401 821.418849 745.943383 821.155702 746.002866 820.84471 746.211057 820.641369L798.354104 768.209322C798.490916 768.071767 798.669366 768 798.859712 768L889.280252 768C889.67879 768 890 768.322953 890 768.717674L890 859.850278C890 860.041658 889.922672 860.227057 889.78586 860.358631L837.642813 912.790678C837.506002 912.928233 837.321604 913 837.137205 913L837.137205 913zM748.441681 820.426067L837.137205 820.426067C837.529795 820.426067 837.851005 820.74902 837.851005 821.143741L837.851005 910.541967 888.566453 859.557228 888.566453 769.435347 799.157129 769.435347 748.441681 820.426067z"/>
    <path fill="#363A3E" d="M746.715718 822C746.477782 822 746.245794 821.880093 746.114929 821.664261 745.930528 821.38248 745.972167 821.010769 746.210103 820.770956L798.353886 768.209837C798.4907 768.077939 798.669152 768 798.859501 768L889.287266 768C889.632274 768 889.929695 768.251804 889.989179 768.593538 890.048663 768.941268 889.858314 769.277007 889.531151 769.396914L746.959603 821.958033C746.882274 821.988009 746.798996 822 746.715718 822L746.715718 822zM799.156922 769.444876L749.511472 819.481958 885.248294 769.444876 799.156922 769.444876zM1263.13672 757C1263.04155 757 1262.95232 756.982058 1262.8631 756.946174 1262.59542 756.832543 1262.42292 756.569396 1262.42292 756.282326L1262.42292 665.867395 1172.71536 665.867395C1172.42389 665.867395 1172.16216 665.687977 1172.05509 665.42483 1171.94207 665.155702 1172.0075 664.84471 1172.20974 664.635389L1224.35327 612.209322C1224.49008 612.071767 1224.66853 612 1224.85888 612L1315.28025 612C1315.67879 612 1316 612.322953 1316 612.717674L1316 703.850278C1316 704.041658 1315.92267 704.227057 1315.78586 704.358631L1263.64233 756.790678C1263.50552 756.928233 1263.32112 757 1263.13672 757L1263.13672 757zM1174.44039 664.426067L1263.13672 664.426067C1263.52932 664.426067 1263.85053 664.74902 1263.85053 665.149722L1263.85053 754.541967 1314.56644 703.551248 1314.56644 613.435347 1225.1563 613.435347 1174.44039 664.426067z"/>
    <path fill="#363A3E" d="M1172.71572 665C1172.47778 665 1172.24579 664.880093 1172.11493 664.664261 1171.93053 664.38248 1171.97217 664.010769 1172.2101 663.770956L1224.35389 611.209837C1224.4907 611.077939 1224.66915 611 1224.8595 611L1315.28727 611C1315.63227 611 1315.92969 611.251804 1315.98918 611.593538 1316.04866 611.941268 1315.85831 612.277007 1315.53115 612.396914L1172.9596 664.958033C1172.88227 664.988009 1172.799 665 1172.71572 665L1172.71572 665zM1225.15692 612.438881L1175.51147 662.481958 1311.24829 612.438881 1225.15692 612.438881zM411.136722 1069C411.041548 1069 410.952323 1068.98206 410.863097 1068.94617 410.59542 1068.83254 410.422916 1068.5694 410.422916 1068.28233L410.422916 977.867395 320.715356 977.867395C320.423885 977.867395 320.162156 977.687977 320.055086 977.42483 319.942066 977.155702 320.007499 976.84471 320.209744 976.635389L372.353267 924.209322C372.49008 924.071767 372.668531 924 372.858879 924L463.280246 924C463.678787 924 464 924.322953 464 924.717674L464 1015.85028C464 1016.04166 463.922671 1016.22706 463.785858 1016.35863L411.642335 1068.79068C411.505522 1068.92823 411.321122 1069 411.136722 1069L411.136722 1069zM322.440387 976.426067L411.136722 976.426067C411.529316 976.426067 411.850528 976.74902 411.850528 977.143741L411.850528 1066.54197 462.56644 1015.55125 462.56644 925.435347 373.156298 925.435347 322.440387 976.426067z"/>
    <path fill="#363A3E" d="M320.71689,979 C320.478956,979 320.24697,978.880093 320.110157,978.664261 C319.931706,978.38248 319.973345,978.010769 320.21128,977.770956 L372.354636,925.209837 C372.491448,925.077939 372.669899,925 372.860247,925 L463.287272,925 C463.632277,925 463.929695,925.251804 463.989179,925.593538 C464.048663,925.941268 463.858315,926.277007 463.531155,926.396914 L320.960773,978.958033 C320.883445,978.988009 320.800168,979 320.71689,979 L320.71689,979 Z M373.157665,926.444876 L323.512621,976.481958 L459.248333,926.444876 L373.157665,926.444876 Z"/>
    <path fill="#363A3E" d="M554.136722,1017 C554.047497,1017 553.952323,1016.98206 553.863097,1016.94617 C553.59542,1016.83254 553.422916,1016.5694 553.422916,1016.28233 L553.422916,925.867395 L463.715356,925.867395 C463.423885,925.867395 463.162156,925.687977 463.055086,925.418849 C462.942066,925.155702 463.007499,924.84471 463.209744,924.641369 L515.353267,872.209322 C515.49008,872.071767 515.668531,872 515.858879,872 L606.286194,872 C606.678787,872 607,872.322953 607,872.717674 L607,963.850278 C607,964.041658 606.922671,964.227057 606.791807,964.358631 L554.642335,1016.79068 C554.505522,1016.92823 554.321122,1017 554.136722,1017 L554.136722,1017 Z M465.440387,924.426067 L554.136722,924.426067 C554.535264,924.426067 554.850528,924.74902 554.850528,925.143741 L554.850528,1014.54197 L605.56644,963.557228 L605.56644,873.435347 L516.156298,873.435347 L465.440387,924.426067 Z"/>
    <path fill="#363A3E" d="M463.71689 925C463.478956 925 463.24697 924.880093 463.110157 924.664261 462.931706 924.38248 462.973345 924.010769 463.21128 923.770956L515.354636 871.209837C515.491448 871.077939 515.669899 871 515.860247 871L606.287272 871C606.632277 871 606.929695 871.251804 606.989179 871.593538 607.048663 871.941268 606.858315 872.277007 606.531155 872.396914L463.960773 924.958033C463.883445 924.988009 463.800168 925 463.71689 925L463.71689 925zM516.157665 872.444876L466.512621 922.481958 602.248333 872.444876 516.157665 872.444876zM271.136722 1121C271.041548 1121 270.952323 1120.98206 270.863097 1120.94617 270.59542 1120.83254 270.422916 1120.5694 270.422916 1120.28233L270.422916 1029.8674 180.715356 1029.8674C180.423885 1029.8674 180.162156 1029.68798 180.055086 1029.42483 179.942066 1029.1557 180.007499 1028.84471 180.209744 1028.64137L232.353267 976.209322C232.49008 976.071767 232.668531 976 232.858879 976L323.280246 976C323.678787 976 324 976.322953 324 976.717674L324 1067.85028C324 1068.04166 323.922671 1068.22706 323.785858 1068.35863L271.642335 1120.79068C271.505522 1120.92823 271.321122 1121 271.136722 1121L271.136722 1121zM182.440387 1028.42607L271.136722 1028.42607C271.529316 1028.42607 271.850528 1028.74902 271.850528 1029.14972L271.850528 1118.54795 322.56644 1067.55723 322.56644 977.435347 233.156298 977.435347 182.440387 1028.42607z"/>
    <path fill="#363A3E" d="M180.71689 1031C180.478956 1031 180.24697 1030.88009 180.110157 1030.66426 179.931706 1030.38248 179.973345 1030.01077 180.21128 1029.77096L232.354636 977.209837C232.491448 977.077939 232.675848 977 232.860247 977L323.287272 977C323.632277 977 323.929695 977.251804 323.989179 977.593538 324.048663 977.941268 323.858315 978.277007 323.531155 978.396914L180.960773 1030.95803C180.883445 1030.98801 180.800168 1031 180.71689 1031L180.71689 1031zM233.157665 978.444876L183.512621 1028.48196 319.248333 978.444876 233.157665 978.444876zM697.137858 965C697.042686 965 696.953463 964.982058 696.864239 964.946174 696.596567 964.832543 696.424068 964.569396 696.424068 964.282326L696.424068 873.867395 606.718435 873.867395C606.426971 873.867395 606.165248 873.687977 606.052231 873.418849 605.945162 873.155702 606.004645 872.84471 606.212834 872.635389L658.355236 820.209322C658.492046 820.071767 658.670494 820 658.860838 820L749.280261 820C749.678794 820 750 820.322953 750 820.717674L750 911.850278C750 912.041658 749.922673 912.227057 749.785863 912.358631L697.64346 964.790678C697.50665 964.928233 697.322254 965 697.137858 965L697.137858 965zM608.443429 872.426067L697.137858 872.426067C697.536392 872.426067 697.851649 872.74902 697.851649 873.143741L697.851649 962.541967 748.566471 911.551248 748.566471 821.435347 659.158251 821.435347 608.443429 872.426067z"/>
    <path fill="#363A3E" d="M606.715718 873C606.477782 873 606.245794 872.880093 606.114929 872.664261 605.930528 872.38248 605.972167 872.010769 606.210103 871.770956L658.359835 819.209837C658.4907 819.077939 658.669152 819 658.859501 819L749.287266 819C749.632274 819 749.929695 819.251804 749.989179 819.593538 750.048663 819.941268 749.858314 820.277007 749.531151 820.396914L606.959603 872.958033C606.882274 872.988009 606.798996 873 606.715718 873L606.715718 873zM659.156922 820.444876L609.511472 870.481958 745.248294 820.444876 659.156922 820.444876zM1406.13721 703C1406.04203 703 1405.95281 702.982058 1405.86358 702.946174 1405.59591 702.832543 1405.42341 702.569396 1405.42341 702.282326L1405.42341 611.867395 1315.71667 611.867395C1315.4252 611.867395 1315.16347 611.687977 1315.0564 611.42483 1314.94338 611.155702 1315.00287 610.84471 1315.21106 610.641369L1367.3541 558.209322C1367.49092 558.077748 1367.66937 558 1367.85971 558L1458.28025 558C1458.67879 558 1459 558.322953 1459 558.717674L1459 649.850278C1459 650.041658 1458.92267 650.227057 1458.78586 650.358631L1406.64281 702.790678C1406.506 702.928233 1406.3216 703 1406.13721 703L1406.13721 703zM1317.44168 610.426067L1406.13721 610.426067C1406.5298 610.426067 1406.851 610.74902 1406.851 611.143741L1406.851 700.541967 1457.56645 649.551248 1457.56645 559.435347 1368.15713 559.435347 1317.44168 610.426067z"/>
    <path fill="#363A3E" d="M1315.71572 613C1315.47778 613 1315.24579 612.880093 1315.11493 612.664261 1314.93053 612.38248 1314.97217 612.010769 1315.2101 611.770956L1367.35389 559.209837C1367.4907 559.077939 1367.66915 559 1367.8595 559L1458.28727 559C1458.63227 559 1458.92969 559.251804 1458.98918 559.593538 1459.04866 559.941268 1458.85831 560.277007 1458.53115 560.396914L1315.9596 612.958033C1315.88227 612.988009 1315.799 613 1315.71572 613L1315.71572 613zM1368.15692 560.444876L1318.51147 610.481958 1454.24829 560.444876 1368.15692 560.444876zM1070.13672 951C1070.04155 951 1069.95232 950.982058 1069.8631 950.946174 1069.59542 950.832543 1069.42292 950.569396 1069.42292 950.282326L1069.42292 859.867395 979.715356 859.867395C979.423885 859.867395 979.162156 859.693958 979.055086 859.42483 978.942066 859.155702 979.007499 858.84471 979.209744 858.641369L1031.35327 806.209322C1031.49008 806.077748 1031.66853 806 1031.85888 806L1122.28025 806C1122.67879 806 1123 806.322953 1123 806.717674L1123 897.850278C1123 898.041658 1122.92267 898.227057 1122.79181 898.358631L1070.64233 950.790678C1070.50552 950.928233 1070.32112 951 1070.13672 951L1070.13672 951zM981.440387 858.432048L1070.13672 858.432048C1070.53526 858.432048 1070.85053 858.74902 1070.85053 859.149722L1070.85053 948.547948 1121.56644 897.557228 1121.56644 807.435347 1032.1563 807.435347 981.440387 858.432048z"/>
    <path fill="#363A3E" d="M979.71689,861 C979.478956,861 979.24697,860.880093 979.110157,860.664261 C978.931706,860.38248 978.973345,860.010769 979.21128,859.770956 L1031.35464,807.209837 C1031.49145,807.077939 1031.6699,807 1031.86025,807 L1122.28727,807 C1122.63228,807 1122.9297,807.251804 1122.98918,807.593538 C1123.04866,807.941268 1122.85832,808.277007 1122.53116,808.396914 L979.960773,860.958033 C979.883445,860.988009 979.800168,861 979.71689,861 L979.71689,861 Z M1032.15767,808.438881 L982.512621,858.481958 L1118.24833,808.438881 L1032.15767,808.438881 Z"/>
    <path fill="#363A3E" d="M928.137205,1003 C928.042032,1003 927.952807,1002.98206 927.863582,1002.94617 C927.595908,1002.83254 927.423406,1002.5694 927.423406,1002.28233 L927.423406,911.867395 L837.716665,911.867395 C837.425197,911.867395 837.163471,911.693958 837.056401,911.42483 C836.943383,911.155702 837.002866,910.84471 837.211057,910.641369 L889.354104,858.209322 C889.490916,858.077748 889.669366,858 889.859712,858 L980.280252,858 C980.67879,858 981,858.322953 981,858.717674 L981,949.850278 C981,950.041658 980.922672,950.227057 980.78586,950.358631 L928.642813,1002.79068 C928.506002,1002.92823 928.321604,1003 928.137205,1003 L928.137205,1003 Z M839.441681,910.432048 L928.137205,910.432048 C928.529795,910.432048 928.851005,910.74902 928.851005,911.149722 L928.851005,1000.54795 L979.566453,949.557228 L979.566453,859.441328 L890.157129,859.441328 L839.441681,910.432048 Z"/>
    <path fill="#363A3E" d="M837.715718 913C837.477782 913 837.245794 912.880093 837.114929 912.664261 836.930528 912.38248 836.972167 912.010769 837.210103 911.770956L889.353886 859.209837C889.4907 859.077939 889.669152 859 889.859501 859L980.287266 859C980.632274 859 980.929695 859.251804 980.989179 859.593538 981.048663 859.941268 980.858314 860.277007 980.531151 860.396914L837.959603 912.958033C837.882274 912.988009 837.798996 913 837.715718 913L837.715718 913zM890.156922 860.444876L840.511472 910.481958 976.248294 860.444876 890.156922 860.444876zM1354.13672 846C1354.04155 846 1353.95232 845.982058 1353.8631 845.946174 1353.59542 845.832543 1353.42292 845.569396 1353.42292 845.282326L1353.42292 754.867395 1263.71536 754.867395C1263.42389 754.867395 1263.16216 754.693958 1263.05509 754.42483 1262.94207 754.155702 1263.0075 753.84471 1263.20974 753.641369L1315.35327 701.209322C1315.49008 701.077748 1315.66853 701 1315.85888 701L1406.28025 701C1406.67879 701 1407 701.322953 1407 701.717674L1407 792.850278C1407 793.041658 1406.92267 793.227057 1406.78586 793.358631L1354.64233 845.790678C1354.50552 845.928233 1354.32112 846 1354.13672 846L1354.13672 846zM1265.44039 753.426067L1354.13672 753.426067C1354.52932 753.426067 1354.85053 753.74902 1354.85053 754.149722L1354.85053 843.541967 1405.56644 792.551248 1405.56644 702.435347 1316.1563 702.435347 1265.44039 753.426067z"/>
    <path fill="#363A3E" d="M1263.71572 755C1263.47778 755 1263.24579 754.880093 1263.11493 754.664261 1262.93053 754.38248 1262.97217 754.010769 1263.2101 753.770956L1315.35389 701.209837C1315.4907 701.077939 1315.66915 701 1315.8595 701L1406.28727 701C1406.63227 701 1406.92969 701.251804 1406.98918 701.593538 1407.04866 701.941268 1406.85831 702.277007 1406.53115 702.396914L1263.9596 754.958033C1263.88227 754.988009 1263.799 755 1263.71572 755L1263.71572 755zM1316.15692 702.444876L1266.51147 752.481958 1402.24829 702.444876 1316.15692 702.444876zM502.136722 1161C502.047497 1161 501.952323 1160.98206 501.863097 1160.94617 501.59542 1160.83254 501.422916 1160.5694 501.422916 1160.28233L501.422916 1069.8674 411.715356 1069.8674C411.423885 1069.8674 411.162156 1069.69396 411.055086 1069.42483 410.942066 1069.1557 411.007499 1068.84471 411.209744 1068.64137L463.353267 1016.20932C463.49008 1016.07775 463.668531 1016 463.858879 1016L554.280246 1016C554.678787 1016 555 1016.32295 555 1016.71767L555 1107.85028C555 1108.04166 554.922671 1108.22706 554.791807 1108.35863L502.642335 1160.79068C502.505522 1160.92823 502.321122 1161 502.136722 1161L502.136722 1161zM413.440387 1068.42607L502.136722 1068.42607C502.529316 1068.42607 502.850528 1068.74902 502.850528 1069.14972L502.850528 1158.54197 553.56644 1107.55125 553.56644 1017.43535 464.156298 1017.43535 413.440387 1068.42607z"/>
    <path fill="#363A3E" d="M411.715718,1069 C411.477782,1069 411.245794,1068.88009 411.114929,1068.66426 C410.930528,1068.38248 410.972167,1068.01077 411.210103,1067.77096 L463.353886,1015.20984 C463.4907,1015.07794 463.6751,1015 463.859501,1015 L554.287266,1015 C554.632274,1015 554.929695,1015.2518 554.989179,1015.59354 C555.048663,1015.94127 554.858314,1016.27701 554.531151,1016.39691 L411.959603,1068.95803 C411.882274,1068.98801 411.798996,1069 411.715718,1069 L411.715718,1069 Z M464.156922,1016.44488 L414.511472,1066.48196 L550.248294,1016.44488 L464.156922,1016.44488 Z"/>
    <path fill="#363A3E" d="M644.137205,1108 C644.047981,1108 643.952807,1107.98206 643.863582,1107.94617 C643.595908,1107.83254 643.423406,1107.5694 643.423406,1107.28233 L643.423406,1016.8674 L553.716665,1016.8674 C553.425197,1016.8674 553.163471,1016.69396 553.056401,1016.42483 C552.943383,1016.1557 553.002866,1015.84471 553.211057,1015.64137 L605.354104,963.209322 C605.490916,963.077748 605.669366,963 605.859712,963 L696.280252,963 C696.67879,963 697,963.322953 697,963.717674 L697,1054.85028 C697,1055.04166 696.922672,1055.22706 696.791809,1055.35863 L644.642813,1107.79068 C644.506002,1107.92823 644.321604,1108 644.137205,1108 L644.137205,1108 Z M555.441681,1015.43205 L644.137205,1015.43205 C644.535743,1015.43205 644.851005,1015.74902 644.851005,1016.14972 L644.851005,1105.54795 L695.566453,1054.55723 L695.566453,964.441328 L606.157129,964.441328 L555.441681,1015.43205 Z"/>
    <path fill="#363A3E" d="M553.715718,1017 C553.477782,1017 553.245794,1016.88009 553.114929,1016.66426 C552.930528,1016.38248 552.972167,1016.01077 553.210103,1015.77096 L605.353886,963.209837 C605.4907,963.077939 605.6751,963 605.859501,963 L696.287266,963 C696.632274,963 696.929695,963.251804 696.989179,963.593538 C697.048663,963.941268 696.858314,964.277007 696.531151,964.396914 L553.959603,1016.95803 C553.882274,1016.98801 553.798996,1017 553.715718,1017 L553.715718,1017 Z M606.156922,964.444876 L556.511472,1014.48196 L692.248294,964.444876 L606.156922,964.444876 Z"/>
    <path fill="#363A3E" d="M786.136722,1055 C786.041548,1055 785.952323,1054.98206 785.863097,1054.94617 C785.59542,1054.83254 785.422916,1054.5694 785.422916,1054.28233 L785.422916,963.867395 L695.715356,963.867395 C695.423885,963.867395 695.162156,963.693958 695.055086,963.42483 C694.942066,963.155702 695.007499,962.84471 695.209744,962.641369 L747.353267,910.209322 C747.49008,910.077748 747.668531,910 747.858879,910 L838.280246,910 C838.678787,910 839,910.322953 839,910.717674 L839,1001.85028 C839,1002.04166 838.922671,1002.22706 838.785858,1002.35863 L786.642335,1054.79068 C786.505522,1054.92823 786.321122,1055 786.136722,1055 L786.136722,1055 Z M697.440387,962.432048 L786.136722,962.432048 C786.529316,962.432048 786.850528,962.74902 786.850528,963.149722 L786.850528,1052.54795 L837.56644,1001.55723 L837.56644,911.441328 L748.156298,911.441328 L697.440387,962.432048 Z"/>
    <path fill="#363A3E" d="M695.715718 964C695.477782 964 695.245794 963.880093 695.114929 963.664261 694.930528 963.38248 694.972167 963.010769 695.210103 962.770956L747.353886 910.209837C747.4907 910.077939 747.669152 910 747.859501 910L838.287266 910C838.632274 910 838.929695 910.251804 838.989179 910.593538 839.048663 910.941268 838.858314 911.277007 838.531151 911.396914L695.959603 963.958033C695.882274 963.988009 695.798996 964 695.715718 964L695.715718 964zM748.156922 911.444876L698.511472 961.481958 834.248294 911.444876 748.156922 911.444876zM1160.13672 1042C1160.04155 1042 1159.95232 1041.98206 1159.8631 1041.94617 1159.59542 1041.83254 1159.42292 1041.5694 1159.42292 1041.28233L1159.42292 950.867395 1069.71536 950.867395C1069.42389 950.867395 1069.16216 950.687977 1069.05509 950.418849 1068.94207 950.155702 1069.0075 949.84471 1069.20974 949.635389L1121.35327 897.209322C1121.49008 897.071767 1121.66853 897 1121.85888 897L1212.28025 897C1212.67879 897 1213 897.322953 1213 897.717674L1213 988.850278C1213 989.041658 1212.92267 989.227057 1212.79181 989.358631L1160.64233 1041.79068C1160.50552 1041.92823 1160.32112 1042 1160.13672 1042L1160.13672 1042zM1071.44039 949.426067L1160.13672 949.426067C1160.53526 949.426067 1160.85053 949.74902 1160.85053 950.143741L1160.85053 1039.54197 1211.56644 988.551248 1211.56644 898.435347 1122.1563 898.435347 1071.44039 949.426067z"/>
    <path fill="#363A3E" d="M1069.71572 950C1069.47778 950 1069.24579 949.880093 1069.11493 949.664261 1068.93053 949.38248 1068.97217 949.010769 1069.2101 948.770956L1121.35983 896.209837C1121.4907 896.077939 1121.6751 896 1121.8595 896L1212.28727 896C1212.63227 896 1212.92969 896.251804 1212.98918 896.593538 1213.04866 896.941268 1212.85831 897.277007 1212.53115 897.396914L1069.9596 949.958033C1069.88227 949.988009 1069.799 950 1069.71572 950L1069.71572 950zM1122.15692 897.444876L1072.51147 947.481958 1208.24829 897.444876 1122.15692 897.444876zM734.136722 1199C734.041548 1199 733.952323 1198.98206 733.863097 1198.94617 733.59542 1198.83254 733.422916 1198.5694 733.422916 1198.28233L733.422916 1107.8674 643.715356 1107.8674C643.423885 1107.8674 643.162156 1107.68798 643.055086 1107.42483 642.942066 1107.1557 643.007499 1106.84471 643.209744 1106.64137L695.353267 1054.20932C695.49008 1054.07775 695.668531 1054 695.858879 1054L786.280246 1054C786.678787 1054 787 1054.32295 787 1054.71767L787 1145.85028C787 1146.04166 786.922671 1146.22706 786.791807 1146.35863L734.642335 1198.79068C734.505522 1198.92823 734.321122 1199 734.136722 1199L734.136722 1199zM645.440387 1106.42607L734.136722 1106.42607C734.535264 1106.42607 734.850528 1106.74902 734.850528 1107.14374L734.850528 1196.54795 785.56644 1145.55723 785.56644 1055.43535 696.156298 1055.43535 645.440387 1106.42607z"/>
    <path fill="#363A3E" d="M643.715718,1107 C643.477782,1107 643.245794,1106.88009 643.114929,1106.66426 C642.930528,1106.38248 642.972167,1106.01077 643.210103,1105.77096 L695.359835,1053.20984 C695.4907,1053.07794 695.669152,1053 695.859501,1053 L786.287266,1053 C786.632274,1053 786.929695,1053.2518 786.989179,1053.59354 C787.048663,1053.94127 786.858314,1054.27701 786.531151,1054.39691 L643.959603,1106.95803 C643.882274,1106.98801 643.798996,1107 643.715718,1107 L643.715718,1107 Z M696.156922,1054.44488 L646.511472,1104.48196 L782.248294,1054.44488 L696.156922,1054.44488 Z"/>
    <path fill="#363A3E" d="M593.136722,1251 C593.047497,1251 592.952323,1250.98206 592.863097,1250.94617 C592.59542,1250.83254 592.422916,1250.5694 592.422916,1250.28233 L592.422916,1159.8674 L502.715356,1159.8674 C502.423885,1159.8674 502.162156,1159.68798 502.055086,1159.42483 C501.942066,1159.1557 502.007499,1158.84471 502.209744,1158.63539 L554.353267,1106.20932 C554.49008,1106.07775 554.668531,1106 554.858879,1106 L645.280246,1106 C645.678787,1106 646,1106.32295 646,1106.71767 L646,1197.85028 C646,1198.04166 645.922671,1198.22706 645.791807,1198.35863 L593.642335,1250.79068 C593.505522,1250.92823 593.321122,1251 593.136722,1251 L593.136722,1251 Z M504.440387,1158.42607 L593.136722,1158.42607 C593.529316,1158.42607 593.850528,1158.74902 593.850528,1159.14972 L593.850528,1248.54795 L644.56644,1197.55723 L644.56644,1107.43535 L555.156298,1107.43535 L504.440387,1158.42607 Z"/>
    <path fill="#363A3E" d="M502.715718,1159 C502.477782,1159 502.245794,1158.88009 502.114929,1158.66426 C501.930528,1158.38248 501.972167,1158.01077 502.210103,1157.77096 L554.353886,1105.20984 C554.4907,1105.07794 554.6751,1105 554.859501,1105 L645.287266,1105 C645.632274,1105 645.929695,1105.2518 645.989179,1105.59354 C646.048663,1105.94127 645.858314,1106.27701 645.531151,1106.39691 L502.959603,1158.95803 C502.882274,1158.98801 502.798996,1159 502.715718,1159 L502.715718,1159 Z M555.156922,1106.43888 L505.511472,1156.48196 L641.248294,1106.43888 L555.156922,1106.43888 Z"/>
  </g>
</svg>
